C:\GBW_MyPrograms\KinderuniversiteitApp\Resultaten\TymenKool\Model5_v1.mot
version=1
nRows=13
nColumns=31
inDegrees=yes
endheader
                time	         pelvis_tilt	           pelvis_tx	           pelvis_ty	       hip_flexion_r	        knee_angle_r	       ankle_angle_r	       hip_flexion_l	        knee_angle_l	       ankle_angle_l	    lumbar_extension	          arm_flex_r	          arm_flex_l	hamstrings_r/activation	bifemsh_r/activation	glut_max_r/activation	iliopsoas_r/activation	rect_fem_r/activation	  vasti_r/activation	gastroc_r/activation	 soleus_r/activation	tib_ant_r/activation	hamstrings_l/activation	bifemsh_l/activation	glut_max_l/activation	iliopsoas_l/activation	rect_fem_l/activation	  vasti_l/activation	gastroc_l/activation	 soleus_l/activation	tib_ant_l/activation	
          1.27684448	         -0.74416667	          1.68600165	          0.33146379	          1.83111830	        -51.47785307	        -19.45291838	         41.94999201	        -50.81386984	          5.53384234	         -1.81095874	         -6.89011671	         -6.89048201	          0.21901516	          0.70756332	          0.19530345	          0.53411015	          0.35113854	          0.08421998	          0.59992100	          0.50182128	          0.70615921	          0.51429990	          0.47202791	          0.31456915	          0.29158715	          0.40808110	          0.16941644	          0.12333781	          0.05824856	          0.71336344	
          1.28535678	         -0.70135880	          1.69827530	          0.32698778	          4.08856584	        -55.97078787	        -19.18872341	         40.78960136	        -52.62633581	          6.83940000	         -1.64806026	         -7.30977448	         -7.31009121	          0.19467032	          0.65424519	          0.17275974	          0.47931912	          0.42945625	          0.08824957	          0.59332519	          0.48479408	          0.71126367	          0.51310566	          0.42639358	          0.42359360	          0.25898884	          0.36563509	          0.26456226	          0.11625773	          0.05446113	          0.63152346	
          1.29386908	         -0.69823754	          1.71052611	          0.32222772	          6.31526200	        -59.83297524	        -19.02615993	         39.20809621	        -54.10253098	          9.33779635	         -1.44055284	         -7.71995529	         -7.72022011	          0.17234880	          0.60368057	          0.15875347	          0.55224356	          0.62134477	          0.12316229	          0.58774266	          0.46341671	          0.72266927	          0.46095582	          0.37941169	          0.62564260	          0.22898603	          0.33130234	          0.52781077	          0.11237108	          0.07543117	          0.55778556	
          1.30238137	         -0.68472149	          1.72239129	          0.31787827	          8.50371347	        -63.03012972	        -19.02177835	         37.85343693	        -55.94426724	         11.89818440	         -1.35509737	         -7.96019050	         -7.96040530	          0.15273245	          0.66204137	          0.14020746	          0.65961548	          0.73088634	          0.11075613	          0.59006276	          0.46865214	          0.70476305	          0.42570141	          0.34071344	          0.67555980	          0.20565626	          0.31504481	          0.64687364	          0.10693738	          0.07109744	          0.49285180	
          1.31089367	         -0.66823790	          1.73369843	          0.31452405	         10.95300753	        -66.30449912	        -18.89656584	         36.64117633	        -57.87217634	         14.33148765	         -1.42923068	         -7.95964374	         -7.95980453	          0.13538090	          0.69824214	          0.12444497	          0.71652070	          0.81030709	          0.09964854	          0.58951245	          0.45365730	          0.71052937	          0.40177048	          0.30672471	          0.73591803	          0.18342847	          0.28861504	          0.62299916	          0.10173794	          0.06562672	          0.43531434	
          1.31940597	         -0.69658754	          1.74452363	          0.31234723	         13.93326588	        -69.74733659	        -18.62199237	         35.18777792	        -59.18934583	         16.57172441	         -1.57936171	         -7.75890989	         -7.75901771	          0.11980756	          0.75203626	          0.11068955	          0.77236534	          0.86396530	          0.08998468	          0.58808194	          0.43580365	          0.72307429	          0.38346757	          0.27594263	          0.72248201	          0.16448150	          0.28807956	          0.74256200	          0.10526817	          0.06452233	          0.38414053	
          1.32791826	         -0.78318587	          1.75497282	          0.31135744	         17.56625088	        -73.18025630	        -18.24675753	         33.35740894	        -59.60104955	         18.34040980	         -1.75733399	         -7.40531594	         -7.40536860	          0.10593201	          0.76667740	          0.09825998	          0.82587729	          0.90050114	          0.08221676	          0.58538597	          0.41558240	          0.73459558	          0.34914725	          0.24805258	          0.72257785	          0.14731612	          0.33287578	          0.82558070	          0.13874699	          0.07364716	          0.33879884	
          1.33643056	         -0.91620667	          1.76514619	          0.31155355	         21.83354377	        -76.45374437	        -17.79679241	         31.16757204	        -59.08302393	         19.14032121	         -1.94818960	         -6.93902323	         -6.93902226	          0.09388548	          0.81008360	          0.08756755	          0.87060634	          0.92360445	          0.07490560	          0.58385463	          0.39625300	          0.74612335	          0.31492159	          0.22304254	          0.75938037	          0.13137244	          0.48428340	          0.88129694	          0.19310038	          0.24221389	          0.29871712	
          1.34494286	         -1.07412642	          1.77512902	          0.31294032	         26.63268894	        -79.45282028	        -17.30532385	         28.68110472	        -57.70409050	         18.56486749	         -2.15417775	         -6.39238578	         -6.39233134	          0.08317682	          0.85115022	          0.07795769	          0.90369121	          0.93330766	          0.06848938	          0.58320019	          0.37894617	          0.74925500	          0.28322785	          0.20001077	          0.77880245	          0.11788521	          0.57183530	          0.92024336	          0.38654349	          0.46992247	          0.26329264	
          1.35345515	         -1.23205388	          1.78503142	          0.31552029	         31.80146316	        -82.06895336	        -16.82236570	         25.87332135	        -55.46700196	         16.66896906	         -2.37405810	         -5.80681998	         -5.80671367	          0.07344794	          0.87359798	          0.06921005	          0.91694256	          0.92304358	          0.06420101	          0.57726248	          0.35858498	          0.75423026	          0.25631439	          0.17907481	          0.81017324	          0.10687975	          0.64757418	          0.94524271	          0.58611350	          0.64047082	          0.23195486	
          1.36196745	         -1.36171921	          1.79499412	          0.31928237	         37.12685820	        -84.25056278	        -16.35606407	         22.66593695	        -52.31910758	         13.63099621	         -2.60086176	         -5.23502490	         -5.23486925	          0.06538485	          0.85017832	          0.06354992	          0.90254657	          0.89629137	          0.06632556	          0.57509538	          0.34287910	          0.75754606	          0.23404040	          0.16090446	          0.85398053	          0.09647750	          0.72301141	          0.95391643	          0.72123480	          0.75711627	          0.20414201	
          1.37047975	         -1.46103478	          1.80517970	          0.32417090	         42.39928270	        -85.93699836	        -15.90551951	         18.97083718	        -48.15985354	          9.64341904	         -2.78937299	         -4.74362850	         -4.74342490	          0.05930856	          0.82155001	          0.06155598	          0.88157121	          0.85862503	          0.07454853	          0.57260767	          0.32926707	          0.76077494	          0.21736734	          0.14613535	          0.89173455	          0.08723846	          0.76718273	          0.85714715	          0.80037408	          0.78209493	          0.17968957	
          1.37899204	         -1.53001264	          1.81571849	          0.33004106	         47.43696760	        -87.06523833	        -15.46325501	         14.77919252	        -43.01121313	          4.73720060	         -2.90109067	         -4.38608710	         -4.38583990	          0.05649850	          0.77808791	          0.06476533	          0.85701946	          0.81402974	          0.12838958	          0.56874215	          0.31378160	          0.76660315	          0.20741864	          0.13748349	          0.81601283	          0.08074099	          0.76371249	          0.75549747	          0.84846144	          0.80163222	          0.15815492	
